<svg xmlns="http://www.w3.org/2000/svg" width="267" height="267" viewBox="0 0 267 267"><path d="M252.312 266.754c8.148-.01 14.747-6.625 14.736-14.773l-.296-237.838c-.01-8.15-6.624-14.747-14.772-14.737L14.143-.299C5.991-.289-.605 6.324-.595 14.475l.296 237.838c.01 8.148 6.623 14.748 14.774 14.737l237.837-.296z"/><path fill="#FFF" d="M184.186 266.839l-.129-103.531 34.751-.043 5.153-40.355-39.954.05-.032-25.76c-.015-11.682 3.219-19.647 19.971-19.668l21.366-.037-.045-36.087c-3.697-.486-16.381-1.569-31.136-1.55-30.805.038-51.871 18.867-51.828 53.399l.037 29.755-34.841.043.05 40.35 34.84-.044.129 103.531 41.668-.053z"/></svg>