<svg xmlns="http://www.w3.org/2000/svg" width="80" height="40" viewBox="0 0 80 40"><path d="M18.427 25.752v4.883H2.55V4.287h6.112v21.465h9.765zm10.507-14.16c1.422 0 2.718.223 3.888.669 1.169.446 2.173 1.085 3.011 1.917.838.832 1.489 1.842 1.953 3.029.464 1.188.696 2.522.696 4.005 0 1.495-.232 2.843-.696 4.042-.464 1.199-1.115 2.219-1.953 3.056-.838.839-1.842 1.483-3.011 1.936-1.17.452-2.466.678-3.888.678-1.435 0-2.74-.226-3.915-.678a8.717 8.717 0 0 1-3.038-1.936c-.85-.837-1.507-1.856-1.971-3.056-.464-1.199-.696-2.547-.696-4.042 0-1.483.232-2.818.696-4.005.464-1.188 1.121-2.197 1.971-3.029a8.688 8.688 0 0 1 3.038-1.917c1.175-.446 2.48-.669 3.915-.669zm0 15.173c1.29 0 2.239-.455 2.848-1.365.608-.91.913-2.294.913-4.15s-.305-3.237-.913-4.141c-.609-.904-1.558-1.356-2.848-1.356-1.326 0-2.297.452-2.912 1.356s-.922 2.284-.922 4.14.308 3.24.922 4.15 1.586 1.366 2.912 1.366zM58.141 12.46v2.043c0 .313-.088.561-.264.742-.174.181-.473.319-.895.416l-1.355.308c.072.265.129.537.172.814.041.277.062.566.062.868 0 .94-.195 1.785-.588 2.532-.393.748-.928 1.383-1.609 1.908s-1.486.929-2.414 1.212-1.924.425-2.984.425c-.289 0-.572-.009-.85-.027a7.182 7.182 0 0 1-.814-.099c-.41.253-.613.536-.613.85s.168.54.506.678c.338.139.783.235 1.338.29.555.054 1.184.09 1.891.108.705.018 1.424.061 2.16.126.734.066 1.455.179 2.16.335.707.156 1.336.41 1.891.76s1 .816 1.338 1.401.506 1.329.506 2.233c0 .844-.205 1.669-.613 2.478-.41.808-1.014 1.524-1.809 2.151-.797.627-1.773 1.131-2.93 1.511-1.158.379-2.484.569-3.979.569-1.471 0-2.74-.139-3.807-.416s-1.953-.642-2.658-1.094-1.228-.974-1.565-1.564-.506-1.206-.506-1.845c0-.832.241-1.525.724-2.08.482-.554 1.158-1 2.025-1.338a3.177 3.177 0 0 1-1.086-1.066c-.264-.435-.396-.995-.396-1.683 0-.276.047-.569.145-.877.096-.308.25-.608.461-.904.211-.295.473-.575.787-.841a5.04 5.04 0 0 1 1.121-.705c-.977-.519-1.748-1.202-2.314-2.053-.568-.85-.851-1.841-.851-2.975 0-.94.198-1.787.597-2.541s.943-1.393 1.637-1.917 1.51-.928 2.449-1.211a10.565 10.565 0 0 1 3.057-.425c1.592 0 3.002.302 4.232.904h5.641zm-5.536 18.862c0-.446-.197-.769-.596-.968s-.916-.341-1.555-.425a20.095 20.095 0 0 0-2.145-.154 33.692 33.692 0 0 1-2.359-.135c-.35.241-.637.509-.859.805-.223.295-.334.63-.334 1.003 0 .266.057.507.172.724s.316.403.605.561c.289.156.678.28 1.166.371.488.09 1.107.136 1.854.136.809 0 1.471-.049 1.99-.146.518-.097.932-.229 1.238-.397s.521-.371.643-.605c.12-.237.18-.492.18-.77zm-4.339-11.05c.928 0 1.602-.232 2.018-.696.416-.464.623-1.064.623-1.799 0-.76-.207-1.356-.623-1.791s-1.09-.651-2.018-.651-1.6.217-2.016.651-.625 1.031-.625 1.791c0 .361.053.693.154.995s.262.563.479.787c.219.223.492.397.824.524.33.126.727.189 1.184.189zm20.507-8.68c1.422 0 2.719.223 3.888.669a8.534 8.534 0 0 1 3.012 1.917c.837.832 1.488 1.842 1.952 3.029.465 1.188.696 2.522.696 4.005 0 1.495-.231 2.843-.696 4.042-.464 1.199-1.115 2.219-1.952 3.056-.839.839-1.842 1.483-3.012 1.936-1.169.452-2.466.678-3.888.678-1.435 0-2.74-.226-3.915-.678a8.717 8.717 0 0 1-3.038-1.936c-.851-.837-1.508-1.856-1.972-3.056s-.696-2.547-.696-4.042c0-1.483.232-2.818.696-4.005s1.121-2.197 1.972-3.029a8.688 8.688 0 0 1 3.038-1.917c1.175-.446 2.481-.669 3.915-.669zm0 15.173c1.29 0 2.239-.455 2.849-1.365.608-.91.913-2.294.913-4.15s-.305-3.237-.913-4.141c-.609-.904-1.559-1.356-2.849-1.356-1.326 0-2.297.452-2.911 1.356-.615.904-.923 2.285-.923 4.141s.308 3.24.923 4.15c.615.91 1.585 1.365 2.911 1.365z"/></svg>