<svg xmlns="http://www.w3.org/2000/svg" width="80" height="40" viewBox="0 0 80 40"><path d="M5.85 38.715V1.662h8v37.053h-8zm14.5 0V1.662H32c10.651 0 16.701 4.601 16.701 18.502 0 14.001-6.05 18.551-16.701 18.551H20.35zm8-6.851h3.4c6.101 0 8.851-2.25 8.851-11.45 0-9.151-2.75-11.401-8.851-11.401h-3.4v22.851zm21.5 2.75l4.551-5.7c2.65 2.101 6.199 3.351 9.801 3.351 4.199 0 5.8-1.5 5.8-4.051 0-7.101-18.151-1.95-18.151-15.801 0-8 5.451-11.301 12.451-11.301 6.25 0 9.85 1.351 12.201 2.95l-3.751 6.4c-1.899-1.05-4.65-1.95-8.251-1.95-3.3 0-4.699 1.25-4.699 3.7 0 6.9 18.101 1.75 18.101 15.751 0 6.851-4.251 11.251-13.501 11.251-6.552.001-11.102-1.599-14.552-4.6z"/></svg>