<svg xmlns="http://www.w3.org/2000/svg" width="404.98" height="404.98" viewBox="0 0 404.98 404.98"><path opacity=".5" fill="#FFF" d="M400.082 72.532c-14.73 6.532-30.557 10.948-47.17 12.932 16.955-10.164 29.979-26.259 36.105-45.436a164.335 164.335 0 0 1-52.146 19.929c-14.981-15.961-36.326-25.935-59.945-25.935-45.357 0-82.13 36.771-82.13 82.125 0 6.437.726 12.704 2.126 18.715-68.254-3.425-128.769-36.121-169.274-85.809-7.07 12.13-11.12 26.238-11.12 41.289 0 28.492 14.5 53.63 36.535 68.358a81.774 81.774 0 0 1-37.198-10.273c-.006.342-.008.688-.008 1.032 0 39.791 28.31 72.984 65.88 80.531a82.364 82.364 0 0 1-21.637 2.88 82.222 82.222 0 0 1-15.452-1.474c10.452 32.627 40.782 56.373 76.719 57.035-28.106 22.025-63.519 35.154-101.995 35.154-6.629 0-13.167-.391-19.592-1.146 36.345 23.303 79.515 36.896 125.892 36.896 151.062 0 233.666-125.143 233.666-233.669 0-3.561-.081-7.103-.237-10.624 16.045-11.575 29.97-26.039 40.981-42.51z"/></svg>