<svg xmlns="http://www.w3.org/2000/svg" width="80" height="40" viewBox="0 0 80 40"><path d="M5.85 38.715V1.662h8v37.053h-8zm14.5 0V1.662H32c10.65 0 16.701 4.601 16.701 18.502 0 14.001-6.051 18.551-16.701 18.551H20.35zm8-6.851h3.4c6.101 0 8.852-2.25 8.852-11.45 0-9.151-2.75-11.401-8.852-11.401h-3.4v22.851zm21.5 2.75l4.551-5.7c2.65 2.102 6.199 3.352 9.802 3.352 4.198 0 5.8-1.5 5.8-4.052 0-7.101-18.15-1.95-18.15-15.801 0-8 5.45-11.301 12.45-11.301 6.25 0 9.851 1.351 12.201 2.95l-3.751 6.4c-1.898-1.05-4.65-1.95-8.251-1.95-3.3 0-4.698 1.25-4.698 3.7 0 6.9 18.1 1.75 18.1 15.751 0 6.852-4.25 11.251-13.5 11.251-6.554.001-11.104-1.599-14.554-4.6z" opacity=".5" fill="#FFF"/></svg>